<?xml version="1.0" encoding="utf-8"?>
<!-- Generator: Adobe Illustrator 26.0.2, SVG Export Plug-In . SVG Version: 6.00 Build 0)  -->
<svg version="1.1" id="Calque_1" xmlns="http://www.w3.org/2000/svg" xmlns:xlink="http://www.w3.org/1999/xlink" x="0px" y="0px"
	 viewBox="0 0 108 69" style="enable-background:new 0 0 108 69;" xml:space="preserve">
<style type="text/css">
	.st0{fill:#D3AE8B;}
	.st1{fill:#202447;}
	.st2{fill:none;stroke:#1F2447;stroke-width:0.2691;stroke-miterlimit:10;}
	.st3{fill:#D3D2D2;}
	.st4{fill:none;stroke:#202447;stroke-width:2.1534;stroke-miterlimit:10;}
	.st5{fill:url(#SVGID_1_);}
	.st6{fill:#313556;}
	.st7{fill:#C8A782;}
	.st8{fill:#B79879;}
	.st9{fill:#F9B207;}
	.st10{fill:url(#SVGID_00000002376663617827791840000015655748487238239368_);}
</style>
<g>
	<polygon class="st0" points="82.8,-0.1 70.1,1.7 83,5.2 93.2,2.9 	"/>
	<g>
		<path class="st1" d="M33.6,32.7c-0.1-0.1-1.1-3-1.1-3l1.2-1.9l-3.6,1.3l2.2,4.4"/>
		<line class="st2" x1="19.9" y1="38.7" x2="20.9" y2="66.7"/>
		<line class="st2" x1="36.9" y1="50.2" x2="3.3" y2="55.2"/>
		<line class="st2" x1="31.5" y1="41.6" x2="8.4" y2="64.9"/>
		<line class="st2" x1="32.4" y1="61" x2="8" y2="44.8"/>
		<line class="st2" x1="96.4" y1="36.3" x2="97" y2="53"/>
		<line class="st2" x1="104.9" y1="43.4" x2="88.5" y2="46"/>
		<line class="st2" x1="102.2" y1="38.1" x2="91" y2="51.8"/>
		<line class="st2" x1="102.7" y1="49.8" x2="90.7" y2="39.9"/>
		<path class="st3" d="M39.4,50.1c-0.4,0-19,1-19,1l0,0.9l17.9-0.5"/>
		<polyline class="st1" points="58,28.2 57.4,19.3 58.8,19.2 59.6,28.6 		"/>
		<path class="st4" d="M88.1,45.8c0.2,4.8,4.2,7.9,8.8,7.1c4.5-0.8,8-5.2,7.8-9.7s-3.9-7.8-8.4-7.1C91.7,36.7,87.9,41.1,88.1,45.8z"
			/>
		<path class="st4" d="M2.9,55.3c0.3,8.1,8.5,13.1,18,11.4c9.1-1.7,15.9-9,15.7-16.4S29,37.6,19.9,38.7C10.4,39.8,2.6,47.3,2.9,55.3
			z"/>
		
			<linearGradient id="SVGID_1_" gradientUnits="userSpaceOnUse" x1="115.6919" y1="27.4176" x2="193.6367" y2="27.4176" gradientTransform="matrix(0.9995 -3.241597e-02 3.241597e-02 0.9995 -97.3905 14.9433)">
			<stop  offset="0" style="stop-color:#C6C6C5"/>
			<stop  offset="2.547244e-02" style="stop-color:#C8C8C7"/>
			<stop  offset="0.4799" style="stop-color:#ECECEC"/>
			<stop  offset="0.9702" style="stop-color:#C6C6C5"/>
		</linearGradient>
		<path class="st5" d="M90.6,28.1l-3-7.3c0,0-1.2,0.9-1.7,0.7c0,0,2.8,5.8,2.8,7.5c0.1,1.7-0.1,5.8-0.8,7.8c-0.8,2-0.8,4.7-3.5,5.5
			c-2.7,0.8-23.4,4-23.4,4l-0.5-3.2l-0.1,0l-1-16l-1.7,0.2l0,0.6c0,0,0.1,0.4-0.7,0.6C56.3,28.8,37,33.3,37,33.3s-2.3,0.3-3-0.4
			l-0.5-0.8l-1.8,0.6l0.5,1.6L19.9,50.6c0,0-0.6,0.7-0.3,1.2c0.3,0.5,0,1.2,0,1.2s0,0.6,0.4,0.5c0.5-0.1,0.7,0.5,1.2,0.5
			c0.4,0,12.5-1,17.6-1.6l0,0l5.3,0.3c0,0,5.6-1,7.2-1.3l6.7-0.9l0,0l0.2,0l0.4-0.1c0,0,0,0,0,0l6.3-1l21.4-3.4l2.8-3.9
			c0,0,0.1-0.9,1.2-4.5c0.5-1.9,0.6-3.7,0.6-5.1l5.7,12.9l0.7,0.2l0.2-0.8L90.6,28.1z M22.9,52.7c0,0-3.3,0.3-1.7-1.7
			C21.3,50.9,33,36.3,33,36.3l0,0l5.2,14.5L22.9,52.7z M43.7,49c-3.1,0.5-4-1.4-4-1.4S36,38.3,35,35.8L57.3,31c0,0,0.6-0.4,0.7,0.8
			c0,0.9,0.5,8.2,0.7,11.7c-0.1,0.1,0,2.2-0.3,3.2c-0.2,0-4.7,0.8-4.7,0.8S46.8,48.5,43.7,49z"/>
		<path class="st6" d="M31.7,28.9c0,0,2.4-1.7,4.3-1.7c1.8,0.1,3.3,0.1,3.3-0.3c0-0.4-0.3-1.4-2.9-1c-2.6,0.3-4.6,1.1-6.8,0.9
			c-2.2-0.2-4-0.8-4.5-0.1c-0.5,0.7-0.1,1.2,0.8,1.6c0.9,0.4,2.4,1.5,3.4,1.4C30.2,29.5,31.7,28.9,31.7,28.9z"/>
		<path class="st7" d="M82.8-0.1L70.1,1.7l-4.9,24.1l-3.1,16.7l10.6,2l0.9,1.7c3.9-1.7,10.7-3.8,10.7-3.8l8.9-39.5"/>
		<polygon class="st8" points="73.6,46.2 83,5.2 70.1,1.7 62.2,42.5 		"/>
		<polyline class="st9" points="68.1,10.1 80.7,13.6 91.2,11.5 90.6,14 80.2,16.1 67.7,12.2 		"/>
		<polyline class="st9" points="64.2,31.9 75.8,36 86.2,34.9 86.5,32.5 76.4,33.4 64.8,29.6 		"/>
		
			<linearGradient id="SVGID_00000099626832713507864760000001333537120204481926_" gradientUnits="userSpaceOnUse" x1="148.1545" y1="8.4546" x2="164.0002" y2="8.4546" gradientTransform="matrix(0.9995 -3.241597e-02 3.241597e-02 0.9995 -97.3905 14.9433)">
			<stop  offset="0.25" style="stop-color:#313556"/>
			<stop  offset="0.5406" style="stop-color:#22233C"/>
		</linearGradient>
		<path style="fill:url(#SVGID_00000099626832713507864760000001333537120204481926_);" d="M58.6,19.4c0,0,0.2-0.9,1.4-1.2
			c1.2-0.3,4.2,2,4.2,2l-0.3,0.3l2.1,1.9l1-1l-2-2l-0.3,0.4c0,0-2.5-2.3-3.7-2.9c-1.3-0.6-5.9-2-5.9-2l0-0.4l-3.9-0.5l-0.2,1.4
			l3.8,0.4l0.1-0.4l3.7,1.5c0,0-0.9,1.4-0.9,2.6"/>
	</g>
</g>
</svg>
