<?xml version="1.0" encoding="utf-8"?>
<!-- Generator: Adobe Illustrator 26.0.2, SVG Export Plug-In . SVG Version: 6.00 Build 0)  -->
<svg version="1.1" id="Calque_1" xmlns="http://www.w3.org/2000/svg" xmlns:xlink="http://www.w3.org/1999/xlink" x="0px" y="0px"
	 viewBox="0 0 215 165" style="enable-background:new 0 0 215 165;" xml:space="preserve">
<style type="text/css">
	.st0{fill:#FFFFFF;}
	.st1{fill:none;stroke:#1F2446;stroke-width:2.8955;stroke-linecap:round;stroke-miterlimit:10;}
	.st2{fill:none;stroke:#1F2446;stroke-width:3.8607;stroke-linecap:round;stroke-miterlimit:10;}
	.st3{fill:none;stroke:#1F2446;stroke-width:2.8955;stroke-miterlimit:10;}
	.st4{fill:#1F2446;}
	.st5{fill:url(#SVGID_1_);}
	.st6{fill:#F6AF01;}
	.st7{fill:url(#SVGID_00000050629219388921040680000009508435467680937361_);}
</style>
<desc>Created with Sketch.</desc>
<g>
	<path class="st0" d="M45.3,56.7c0,0-4.7,21.4-6.5,30.4c-1.8,9-5.1,23.2-5.3,28.3c-0.3,5.2-0.9,8.3,2.5,11.4
		c3.3,3.1,17.2,10,24.9,12.5c7.7,2.5,15.8,5.5,27.9,8.7c0,0,4.5,6.9,10.6,9.3c6.1,2.4,20,2,24.3,1.4c4.3-0.6,6.3,0,9.9-5.7
		c3.5-5.7,4.6-7.6,4.6-7.6s7.3-2.3,19.9-8.3c12.6-6,23-11.4,24-12.9c0.9-1.5,2-3.8,1.3-7.6c-0.7-3.8-3.7-24.4-4.6-29.2
		c-1-4.8-3.6-17.6-6.6-25.9c0,0,3.4-2.7,6.4-7.4c3-4.7,1.6-9.5,0.1-10.9c-1.4-1.4-4.2-4.4-7.5-3.8c-3.3,0.6-6.6,4.9-6.6,4.9
		s-6.1-2.5-19.5-2.8c-13.4-0.3-20.5-0.5-33.2-0.6c-12.8-0.1-39.8-1.2-48.1-0.9c-8.3,0.3-8.2-0.3-8.9-0.7c-0.7-0.4-2.6-3.3-5-4
		c-2.4-0.8-3.8-0.6-7.8,3c-4,3.6-5.1,6-4.5,8C38,48.1,38,50.1,45.3,56.7z"/>
	<path class="st0" d="M43.4,62.7c0,0-11.2,52.2-9.2,60.6s22.4,13.9,22.4,13.9l32.5,11.1c0,0,6.6,9.9,14,9.3s19.3,0.4,19.3,0.4
		s6.3-0.6,8.2-2.9c1.8-2.3,6.3-8.1,6.3-8.1l25.9-10.3l12.9-6.9c0,0,5.9-4.1,4.5-15c-1.4-10.9-10-50.8-10-50.8"/>
	<g>
		<path class="st1" d="M131.1,87.8c0.4,0.7,1.4,4.3,2.3,7.8c1.6,6.2,3.1,12.5,4.7,18.7c1.6,5.9,3.8,11.6,4.5,17.8
			c0.4,3.6-1.4,8.3-3.1,11.5l-0.1,0.2l-1.1,1.9c-1.9,3.5-3.7,6.3-6.2,9.3c-1,1.1-2.2,1.8-3.8,2.1c-3.1,0.5-6.3,0.8-9.5,0.7
			c-0.6,0-1.3,0-1.9,0c-1.4,0.2-7.4-0.1-8.9,0"/>
		<path class="st2" d="M136.2,42.7c-7.1-0.2-37-0.4-44.2-0.5c-6.9-0.1-13.7-0.4-20.6-0.5c-3.9-0.1-7.8-0.3-11.7-0.2
			c-2.9,0-4.3-1.2-5.8-3c-1.3-1.5-2.7-1.8-4.7-1.4c-4.1,0.8-6.3,3.6-8.5,6.6c-2,2.7-1.3,5,0.3,7.6c1.7,2.6,4.3,4.4,6.5,6.5
			c-0.8,3.2-1.8,6.4-2.4,9.6c-0.7,3.5-1.6,7-2.2,10.5c-0.9,2.8-5.7,28.7-6.2,31.5c-0.7,3.4-1.2,6.8-1.2,10.3c0,3.6,1.1,6.1,4.4,8.1
			c6.8,4.1,16.1,8.6,20.8,10.3c9.2,3.3,23.6,7.8,28.7,8.9 M136.2,42.7c6.3-0.2,11.8,0.4,18.2,0.9c2.4,0.2,5.6,0.9,8.1,1.5
			c0.7,0.2,1.4,0.3,2.2,0.8c1.4-1.2,2.4-2.7,3.8-3.8c1.7-1.3,3.4-1.6,5.3-0.9c2,0.7,3.8,1.8,5.1,3.4c1.2,1.5,1.3,3.4,1.3,5.2
			c0,2.7-0.8,5.2-2.8,7.1c-1.5,1.5-2.8,3.1-4.4,4.4c-0.6,0.5-0.6,1.1-0.5,1.5c2.3,6.1,7.2,24.6,10.7,56.4c0.3,3.8,0.4,3.6,0,5.6
			c-0.3,1.5-2.4,3-3.7,3.7c-5.5,3.1-10.9,6.2-16.7,8.7c-7.4,3.2-17.8,6.6-22.8,8.8"/>
		<path class="st3" d="M131.1,87.8c-1-1.7-2-3.5-3.6-4.6c-2.1-1.4-4.4-1.5-6.6-1.9c-6.1-1-12.2-0.4-18.3-0.1
			c-2.2,0.1-3.7,1.2-5.1,2.9c-3.6,4.3-4.5,9.6-6,14.7c-1.4,4.8-2.7,9.6-4,14.4c-1.3,4.8-2.9,9.6-3.9,14.5c-0.5,2.7-0.3,5.5,0.8,8.2
			c1.5,3.5,3.3,7.3,5.5,10.6c0.5,0.8,1.1,1.6,1.7,2.4c1.4,1.6,4.2,4.6,5.8,5.6c0.5,0.5,1.6,0.9,2.4,1.3c2.7,1.4,5.5,2.3,8.5,2.1"/>
		<path class="st2" d="M113,148c4.9,0,4.8,0.6,6.3-0.5c3.2-2.3,6.1-6,8.7-8.7c1-1,3-3.1,2.9-4.9c-0.3-3.3,0.2-5,0-8.4
			c-0.2-2.4-0.6-2.7-3-3c-4.5-0.6-9-1.1-13.6-1.3c-6.6-0.3-3-0.5-10.4,0c-1.9,0.1-3.8-0.1-5.7,0.3c-1.5,0.3-2.1,1.1-2.3,2.4
			c-0.6,3.6-1,7.2-0.9,10.9c0,1.3,0.7,2.1,1.6,2.8c3.8,3,7.6,6,11.5,8.9C108.8,146.8,109.6,148,113,148z"/>
		<path class="st4" d="M140.9,82.5c1.5,1,1.8,2.6,1.8,4.3c0,1.7-1,3-2.9,3.3c-2.2,0.3-3.5,0.3-4.8-1.9c-1.4,1.7-2.6,3.1-1.9,5.7
			l-1.4-4.6c0.5-0.7,2.4-2.6,2.4-3.3C134.5,82.2,137.8,80.6,140.9,82.5"/>
		<path class="st4" d="M94.9,87.2L94,88.5c-0.4-0.4-2.1-0.8-2.2-1.6c0.1,0.6-1.3,2.1-2.5,2.4c-1.6,0.5-3.2,0.6-4.7-0.3
			c-1.4-0.9-1.6-2.6-1.4-4.1c0.7-5.3,8.7-3.8,8.7-0.3C91.9,86,93.2,85.6,94.9,87.2"/>
	</g>
	<linearGradient id="SVGID_1_" gradientUnits="userSpaceOnUse" x1="40.9227" y1="30.1945" x2="58.7279" y2="15.2542">
		<stop  offset="0.3219" style="stop-color:#F6AF01"/>
		<stop  offset="1" style="stop-color:#F4C65F"/>
	</linearGradient>
	<path class="st5" d="M58.1,14.6c0.7,0-4.6-0.5-11.6,4.7c-3.8,2.8-5.1,7.2-4.9,11.7c3.8,0.6,8.8-2.3,11.6-4.7
		C55.4,24.4,59.8,17.7,58.1,14.6"/>
	<path class="st6" d="M53.8,33.1c0.7,0.1-4.6-0.9-12,3.4c-4.1,2.4-5.8,6.6-6.2,11.1c3.7,1,9-1.3,12-3.4
		C50.1,42.6,55.2,36.3,53.8,33.1"/>
	<path class="st6" d="M33.5,18.2c0.6-0.5-3.6,2.9-5,11.4c-0.7,4.7,1.4,8.7,4.7,11.8c3.1-2.3,4.7-7.8,5-11.4
		C38.5,27.1,36.9,19.2,33.5,18.2"/>
	<path class="st6" d="M22.7,36.6c0.4-0.6-2.7,3.8-1.8,12.4c0.5,4.7,3.7,8,7.7,10.2c2.4-3,2.4-8.7,1.8-12.4
		C29.9,43.9,26.3,36.7,22.7,36.6"/>
	<path class="st6" d="M15.5,55.7C15.7,55,14.3,60.2,18,68c2.1,4.3,6.2,6.3,10.6,7c1.3-3.6-0.6-9-2.5-12.2
		C24.8,60.2,18.9,54.6,15.5,55.7"/>
	<path class="st6" d="M13.5,75c-0.2-0.7,0.8,4.6,7.6,9.9c3.7,2.9,8.3,3,12.6,1.7c-0.5-3.8-4.5-7.9-7.6-9.9C23.7,75,16,72.6,13.5,75"
		/>
	<path class="st6" d="M38,51.3c0,0-6.3,3.4-6.9,8.2s-0.4,7.8-0.4,7.8s8.1-2.8,9.9-5.4s2.1-4.5,2.1-4.5S39.4,53.8,38,51.3z"/>
	<path class="st6" d="M43.4,62.7c0,0-6.3,4.8-8.1,9c0,0-2.8,7,0.3,12.6c0,0,4.9-4.4,5.6-7.7c0.7-3.3,2.1-10.1,2.4-11.3
		C44,64,43.4,62.7,43.4,62.7z"/>
	<path class="st6" d="M37.2,96.5c0,0-1.9-4.6-7.5-6.2c-5.6-1.6-15-2.2-15-2.2s5.2,7.3,10.9,9.7c5.7,2.4,10.8,2.5,10.8,2.5L37.2,96.5
		z"/>
	
		<linearGradient id="SVGID_00000126297736595956712230000017783212571916127930_" gradientUnits="userSpaceOnUse" x1="175.2056" y1="26.5715" x2="158.2884" y2="26.5715">
		<stop  offset="0.3219" style="stop-color:#F6AF01"/>
		<stop  offset="1" style="stop-color:#F4C65F"/>
	</linearGradient>
	<path style="fill:url(#SVGID_00000126297736595956712230000017783212571916127930_);" d="M158.7,18.3c-0.7,0,4.6-0.5,11.6,4.7
		c3.8,2.8,5.1,7.2,4.9,11.7c-3.8,0.6-8.8-2.3-11.6-4.7C161.4,28.2,157,21.5,158.7,18.3"/>
	<path class="st6" d="M162.9,36.8c-0.7,0.1,4.6-0.9,12,3.4c4.1,2.4,5.8,6.6,6.2,11.1c-3.7,1-8.9-1.3-12-3.4
		C166.6,46.4,161.6,40.1,162.9,36.8"/>
	<path class="st6" d="M183.3,22c-0.6-0.5,3.6,2.9,5,11.4c0.7,4.7-1.4,8.7-4.7,11.8c-3.1-2.3-4.7-7.8-5-11.4
		C178.3,30.9,179.9,23,183.3,22"/>
	<path class="st6" d="M194,40.4c-0.4-0.6,2.7,3.8,1.8,12.4c-0.5,4.7-3.7,8-7.7,10.2c-2.4-3-2.4-8.7-1.8-12.4
		C186.8,47.6,190.5,40.5,194,40.4"/>
	<path class="st6" d="M201.2,59.5c-0.2-0.7,1.3,4.5-2.5,12.2c-2.1,4.3-6.2,6.3-10.6,7c-1.2-3.6,0.6-9,2.5-12.2
		C192,63.9,197.8,58.4,201.2,59.5"/>
	<path class="st6" d="M203.3,78.8c0.2-0.7-0.8,4.6-7.6,9.9c-3.7,2.9-8.3,3-12.6,1.7c0.5-3.8,4.5-7.9,7.6-9.9
		C193,78.8,200.7,76.3,203.3,78.8"/>
	<path class="st6" d="M178.9,55.3c0,0,6.1,3.1,6.8,7.9c0.6,4.8,0.4,7.8,0.4,7.8s-8.1-2.8-9.9-5.4c-1.8-2.7-1.9-4.1-1.9-4.1
		S177.7,58.3,178.9,55.3z"/>
	<path class="st6" d="M173.9,65.9c0,0,6.3,4.8,8.1,9c0,0,2.8,7-0.3,12.6c0,0-4.4-3.8-5.1-7.2c-1.3-6.2-2.7-10.8-3.1-12.1
		C173.2,67.1,173.9,65.9,173.9,65.9z"/>
	<path class="st6" d="M179.9,99.2c0,0,1.5-3.5,7.1-5.1c5.6-1.6,15-2.2,15-2.2s-5.2,7.3-10.9,9.7s-10.6,2.3-10.6,2.3L179.9,99.2z"/>
</g>
</svg>
