<?xml version="1.0" encoding="UTF-8"?>
<svg id="Calque_2" data-name="Calque 2" xmlns="http://www.w3.org/2000/svg" xmlns:xlink="http://www.w3.org/1999/xlink" viewBox="0 0 202.84 85.73">
  <defs>
    <style>
      .cls-1 {
        fill: #e9d9c5;
      }

      .cls-2 {
        fill: #819692;
      }

      .cls-3 {
        fill: #98afa5;
      }

      .cls-4 {
        fill: #aec4ba;
      }

      .cls-5 {
        fill: #d6baa0;
      }

      .cls-6 {
        fill: #202347;
      }

      .cls-7 {
        fill: url(#Dégradé_sans_nom_38);
      }

      .cls-8 {
        fill: url(#Dégradé_sans_nom_35);
      }

      .cls-9 {
        fill: url(#Dégradé_sans_nom_42);
      }

      .cls-10 {
        fill: url(#Dégradé_sans_nom_50);
      }

      .cls-11 {
        fill: url(#Dégradé_sans_nom_50-2);
      }

      .cls-12 {
        fill: url(#Dégradé_sans_nom_35-2);
      }

      .cls-13 {
        fill: url(#Dégradé_sans_nom_42-2);
      }
    </style>
    <linearGradient id="Dégradé_sans_nom_38" data-name="Dégradé sans nom 38" x1="102" y1="74.76" x2="102" y2="55.8" gradientUnits="userSpaceOnUse">
      <stop offset="0" stop-color="#aec4ba"/>
      <stop offset=".17" stop-color="#acc2b8"/>
      <stop offset=".24" stop-color="#a4bbb1"/>
      <stop offset=".29" stop-color="#98afa5"/>
      <stop offset=".29" stop-color="#98afa5"/>
      <stop offset=".97" stop-color="#90a39d"/>
    </linearGradient>
    <linearGradient id="Dégradé_sans_nom_50" data-name="Dégradé sans nom 50" x1="23.19" y1="23.2" x2="105.55" y2="23.2" gradientUnits="userSpaceOnUse">
      <stop offset="0" stop-color="#98afa5"/>
      <stop offset=".09" stop-color="#9fb6ac"/>
      <stop offset=".28" stop-color="#aac0b6"/>
      <stop offset=".5" stop-color="#aec4ba"/>
      <stop offset=".74" stop-color="#a6bcb2"/>
      <stop offset=".99" stop-color="#98afa5"/>
    </linearGradient>
    <linearGradient id="Dégradé_sans_nom_50-2" data-name="Dégradé sans nom 50" x1="102.63" y1="23.38" x2="184.84" y2="23.38" xlink:href="#Dégradé_sans_nom_50"/>
    <linearGradient id="Dégradé_sans_nom_35" data-name="Dégradé sans nom 35" x1="145.24" y1="66.89" x2="145.24" y2="35.63" gradientUnits="userSpaceOnUse">
      <stop offset="0" stop-color="#aec4ba"/>
      <stop offset=".16" stop-color="#acc2b8"/>
      <stop offset=".21" stop-color="#a5bbb1"/>
      <stop offset=".25" stop-color="#99b0a6"/>
      <stop offset=".26" stop-color="#98afa5"/>
      <stop offset=".97" stop-color="#90a39d"/>
    </linearGradient>
    <linearGradient id="Dégradé_sans_nom_35-2" data-name="Dégradé sans nom 35" x1="59.97" y1="67.05" x2="59.97" y2="34.52" xlink:href="#Dégradé_sans_nom_35"/>
    <linearGradient id="Dégradé_sans_nom_42" data-name="Dégradé sans nom 42" x1="189.35" y1="38.83" x2="171.04" y2="20.52" gradientUnits="userSpaceOnUse">
      <stop offset=".29" stop-color="#98afa5"/>
      <stop offset=".64" stop-color="#91a59e"/>
      <stop offset=".69" stop-color="#90a39d"/>
    </linearGradient>
    <linearGradient id="Dégradé_sans_nom_42-2" data-name="Dégradé sans nom 42" x1="12.15" y1="35.25" x2="43.34" y2="20.71" xlink:href="#Dégradé_sans_nom_42"/>
  </defs>
  <g id="Calque_5" data-name="Calque 5">
    <rect class="cls-2" x="26.75" y="6.03" width="153.88" height="39.81"/>
    <g>
      <path class="cls-5" d="M22.08,74.41l.14,10.48c.26-.02,.51-.11,.76-.21,1.14-.44,2.29-.88,3.43-1.32,.11-.04,.22-.09,.28-.18,.06-.09,.06-.2,.06-.3l-.11-8.62"/>
      <path class="cls-5" d="M21.75,74.41c.04,3.05,.08,6.1,.12,9.14,0,.44,.01,.89,.02,1.33,0,.24,.21,.35,.42,.32,.97-.13,1.94-.66,2.85-1.01,.44-.17,.9-.33,1.33-.51,.27-.12,.49-.25,.57-.56,.1-.43,.01-.96,0-1.4-.03-1.94-.05-3.89-.08-5.83,0-.55-.01-1.09-.02-1.64,0-.42-.66-.43-.66,0,.02,1.28,.03,2.56,.05,3.83l.04,2.84c0,.59,.09,1.22,.02,1.81-.05,.47-.76,.55-1.15,.7-.51,.2-1.02,.39-1.52,.59s-1.06,.46-1.61,.54l.42,.32c-.04-3.05-.08-6.1-.12-9.14,0-.44-.01-.89-.02-1.33s-.66-.43-.66,0h0Z"/>
    </g>
    <g>
      <path class="cls-1" d="M21.95,74.34l.14,10.48c-.25,.02-.5-.04-.75-.09-.71-.16-1.41-.31-2.12-.47-.17-.04-.36-.08-.47-.22-.1-.13-.11-.32-.11-.49,0-2.48-.15-9.21-.15-9.21"/>
      <path class="cls-1" d="M21.62,74.34c.04,3.06,.08,6.12,.12,9.18,0,.43,.01,.87,.02,1.3l.33-.33c-.51,0-1.03-.16-1.53-.27-.41-.09-.94-.12-1.32-.29-.42-.19-.28-1.06-.28-1.47-.01-1.12-.03-2.25-.05-3.37-.03-1.58-.06-3.16-.09-4.75,0-.42-.67-.43-.66,0,.04,1.84,.07,3.67,.1,5.51,.02,1.15,.04,2.31,.05,3.46,0,.67,.12,1.09,.82,1.27,.51,.13,1.03,.23,1.54,.34,.47,.1,.93,.23,1.42,.23,.18,0,.33-.15,.33-.33-.04-3.06-.08-6.12-.12-9.18,0-.43-.01-.87-.02-1.3s-.66-.43-.66,0h0Z"/>
    </g>
    <g>
      <path class="cls-1" d="M181.31,74.56c-.02,3.18,.13,7.6,.1,10.78h-.44c-.97-.26-4.43-1.63-4.43-1.63,0,0-.12-5.95,0-8.92"/>
      <path class="cls-1" d="M180.98,74.56c-.02,3.59,.13,7.19,.1,10.78l.33-.33c-.87,0-1.77-.46-2.59-.77-.73-.28-1.47-.56-2.19-.85l.24,.32c-.06-2.97-.12-5.95,0-8.92,.02-.42-.64-.42-.66,0-.12,2.97-.06,5.95,0,8.92,0,.16,.1,.26,.24,.32,.77,.31,1.54,.6,2.31,.9,.85,.32,1.73,.75,2.65,.75,.18,0,.33-.15,.33-.33,.02-3.59-.13-7.19-.1-10.78,0-.42-.66-.42-.66,0h0Z"/>
    </g>
    <g>
      <path class="cls-5" d="M181.42,74.62c-.02,3.18,.13,7.6,.1,10.78l.33-.04c.7-.17,2.69-.73,2.84-.99,.07-.11,.07-.24,.07-.37,.04-3.17-.04-6.34,0-9.5"/>
      <path class="cls-5" d="M181.09,74.62c-.02,3.59,.13,7.19,.1,10.78,0,.16,.15,.35,.33,.33,.76-.09,1.5-.33,2.23-.57,.32-.11,.68-.21,.98-.4,.32-.2,.36-.51,.37-.87,.06-3.13-.04-6.26,0-9.39,0-.42-.65-.42-.66,0-.03,2.74,.02,5.47,.01,8.21,0,.32,0,.65,0,.97,0,.12,.03,.44-.02,.5-.16,.2-.69,.29-.91,.37-.64,.21-1.32,.45-1.99,.53l.33,.33c.02-3.59-.13-7.19-.1-10.78,0-.42-.66-.42-.66,0h0Z"/>
    </g>
    <path class="cls-7" d="M199.3,66.82c.54,.55,1.21,.96,1.75,1.51,.95,.97,1.45,2.41,1.17,3.74s-1.41,2.48-2.75,2.66c-.88,.12-191.25-.31-193.09-.37s-3.91-.84-4.5-2.58c-.34-.98-.12-2.08,.35-3s1.19-1.69,1.92-2.43l23.34-10.56,161.37,1.35,10.44,9.68Z"/>
    <path class="cls-2" d="M4.85,70.56H190.12c2.49,0,5.07,.19,7.56,0,.11,0,.21,0,.32,0,.42,0,.42-.66,0-.66H12.73c-2.49,0-5.07-.19-7.56,0-.11,0-.21,0-.32,0-.42,0-.42,.66,0,.66h0Z"/>
    <path class="cls-3" d="M200.81,27.69c-.8-.58-1.7-1.04-2.59-1.46-1.58-.76-3.22-1.3-4.9-1.79-.39-.11-.79-.23-1.18-.34-.15-.04-.29,.03-.37,.15-1.73,2.4-3.47,4.81-5.2,7.21-2.5,3.47-5.01,6.95-7.51,10.42-.4,.56-.89,1.06-1.06,1.73-.54,2.05-1.08,4.09-1.61,6.14-.2,.76-.45,1.53-.57,2.3-.06,.37,.12,.6,.31,.91,.99,1.65,2.04,3.26,3.07,4.88,1.22,1.9,2.44,3.8,3.66,5.7,.33,.5,.65,1.01,.98,1.51,.63,.97,1.48,1.65,2.56,2.07,.92,.35,1.91,.46,2.89,.48,.16,0,.26-.09,.3-.21,0-.01,.01-.02,.02-.03,.53-1.61,1.05-3.21,1.58-4.82,1.21-3.68,2.41-7.36,3.62-11.05,1.35-4.12,2.7-8.24,4.05-12.36,.94-2.86,1.87-5.73,2.81-8.59,.14-.42,.39-.91,.44-1.35,.07-.57-.89-1.23-1.29-1.52Z"/>
    <path class="cls-4" d="M202.5,36.51c.13-1.49,.33-2.99,.34-4.48,0-1.21-.19-2.58-1.06-3.5-.69-.74-1.57-.72-2.49-.69-1.1,.03-2.14,.15-3.18,.57-2.23,.92-4.09,2.84-5.49,4.76-1.88,2.59-2.94,5.69-3.63,8.78-.72,3.21-.88,6.51-.52,9.78,.18,4.49,.36,8.98,.54,13.46,.03,.63,.05,1.26,.08,1.89,0,.14,.1,.29,.24,.32,1.51,.31,3.05,.21,4.58,.14,1.58-.08,3.15-.15,4.73-.23,1.23-.06,2.53-.08,3.57-.85,.83-.61,1.34-1.53,1.65-2.49,.37-1.12,.46-2.3,.5-3.47,.05-1.58-.02-3.17-.12-4.75-.2-3.25-.43-6.47-.35-9.73,.08-3.18,.34-6.35,.62-9.52Z"/>
    <path class="cls-10" d="M102.43,42.64c5.02-11.85-.44-26.98,2.87-39.42,.16-.59,.33-1.2,.21-1.8-.15-.76-.89-1.28-1.63-1.04-.11,.04-.22,.09-.32,.17-4.83,3.76-6.34,3.59-21.6,3.8-18.94,.26-37.86-.79-56.75-2.11-.96-.07-1.7,.82-1.47,1.76,.73,3.01,1.12,6.1,1.17,9.19,0,0,.45,24.17-1.67,27.98-2.12,3.81,76.4,8.09,79.2,1.48Z"/>
    <path class="cls-2" d="M25.19,13.75c-.04-2.18-.21-4.36-.53-6.52-.08-.57-.18-1.14-.28-1.7s-.41-1.3-.38-1.84c.11-1.7,3.07-.99,4.17-.91,5.3,.36,10.61,.7,15.92,.99,10.61,.58,21.24,.96,31.87,.96,4.65,0,9.3-.05,13.95-.16,2.48-.06,5.01-.09,7.45-.57,1.62-.31,3.12-.92,4.51-1.82,.35-.23,.69-.47,1.03-.72,.15-.11,.4-.38,.58-.44,.53-.17-.86-.72,.93,.38,.69,.09,.93,.39,.72,.89-.03,.29-.09,.57-.18,.85-.5,2.17-.89,4.32-1.05,6.54-.81,11.04,1.93,22.14-1.82,32.89-.14,.4,.5,.57,.64,.18,3.51-10.07,1.42-20.49,1.73-30.87,.08-2.66,.35-5.32,.98-7.91,.3-1.24,.99-3.62-.95-3.92-1.05-.16-1.99,.95-2.81,1.49-.74,.49-1.51,.92-2.33,1.24-2.14,.83-4.51,.96-6.78,1.06-4.36,.2-8.75,.2-13.11,.24-11.46,.09-22.92-.28-34.36-.89-6.47-.34-12.93-.89-19.4-1.21-.8-.04-1.52,0-2.02,.71s-.25,1.46-.08,2.23c.62,2.91,.89,5.9,.95,8.87,0,.42,.67,.43,.66,0h0Z"/>
    <path class="cls-11" d="M107.01,41.11c-1.28-2.43-1.44-5.28-1.54-8.03-.21-5.65-.25-11.31-.14-16.97,.06-3.06,.15-6.23-1.02-9.06-.56-1.36-1.4-2.98-1.67-4.51-.08-.45,.31-.84,.76-.77,2.6,.44,10.6,1.73,15.01,1.96,5.74,.3,12.36,.6,18.1,.9,2.27,.12,4.53,.24,6.8,.33,10.43,.44,20.88,.36,31.31-.22,1.53-.09,3.09-.19,4.51-.76,1.93-.78,3.63-2.42,5.71-2.35-.86,4.69-1.12,9.49-.75,14.24l-7.6,21.16s-30.34,8.1-31.25,8.08-38.23-4.01-38.23-4.01Z"/>
    <path class="cls-8" d="M101.13,62.92c1.21,2.28,7.17,3.49,9.75,3.64,9.37,.52,18.76,.32,28.14,.12,4.06-.09,8.11-.17,12.17-.26,5.41-.11,10.81-.23,16.22-.34,4.94-.1,9.91-.21,14.78-1.06,2.9-.51,6.23-1.71,7.01-4.55,.7-2.57-1.1-5.15-3.13-6.87-2.03-1.72-4.47-3.1-5.81-5.4l-20.05-11.03c-1.68-.9-3.38-.91-5.28-1.07-3.23-.28-6.48-.3-9.72-.33-6.15-.05-12.3-.09-18.45-.14-2.33-.02-4.67-.03-6.96,.37-3.5,.62-6.76,2.19-9.91,3.83-2.35,1.22-4.8,2.59-6.13,4.88l-2.63,18.21Z"/>
    <path class="cls-2" d="M107.12,60.5c4.67,.87,9.35,.13,14.02-.27s9.35-.37,14.03-.19c5.26,.2,10.52,.46,15.79,.31s10.75-.69,16.12-1.05c6.29-.42,12.58-.48,18.83,.45,.41,.06,.59-.57,.18-.64-10.73-1.59-21.37-.08-32.11,.46-10.03,.51-20.05-.74-30.07-.19-5.51,.3-11.11,1.52-16.61,.49-.41-.08-.59,.56-.18,.64h0Z"/>
    <path class="cls-3" d="M31.21,48.77c-2.14-3.7-4.28-7.41-6.42-11.11-1.48-2.56-2.96-5.13-4.45-7.69-.5-.86-.99-1.71-1.49-2.57-.19-.33-.35-.75-.6-1.03-.21-.24-.65-.34-.94-.46-.71-.29-1.42-.58-2.13-.87-1.16-.47-2.32-.95-3.48-1.42-.1-.04-.19-.03-.25,.02-1.99,.37-3.95,.84-5.89,1.42-.86,.25-1.85,.44-2.58,.98-.52,.38-.98,.81-1.38,1.32-.32,.4-1.01,1.04-.81,1.57,.08,.21,.18,.41,.26,.61,1.08,2.51,2.15,5.02,3.23,7.52,1.7,3.97,3.4,7.93,5.11,11.9,1.62,3.77,3.24,7.54,4.86,11.32,.56,1.3,1.12,2.6,1.68,3.9,.26,.61,.48,1.29,.8,1.87,.02,.03,.02,.06,.04,.09,.06,.14,.24,.17,.37,.15,1.55-.27,3.34-.68,4.24-2.07,.7-1.07,1.39-2.14,2.09-3.21,2.07-3.18,4.13-6.35,6.2-9.53,.51-.79,1.03-1.58,1.54-2.37,.06-.1,.06-.23,0-.33Z"/>
    <path class="cls-4" d="M17.18,56.15c-.03-1.35-.03-2.7-.16-4.04-.35-3.47-.61-6.96-1.09-10.42-.58-4.14-1.86-8.32-5.03-11.23-1.58-1.4-3.75-1.9-5.8-2.1-.89-.09-1.78-.11-2.67-.08-.43,.01-.92,0-1.34,.08-.37,.08-.48,.42-.62,.75-.22,.5-.3,1.01-.32,1.56,0,.38,0,.77,0,1.15,0,1.07,.01,2.14,.01,3.21,.01,4.21,.02,8.42,0,12.63-.01,2.29-.03,4.59-.07,6.88-.01,.98-.03,1.95-.06,2.93-.04,1.48-.11,2.98,.19,4.44,.28,1.36,.94,2.71,2.05,3.57,1.3,1,2.94,1.03,4.5,.88,.92-.09,1.83-.2,2.76-.21,.93,0,1.85,.07,2.78,.14,1.62,.13,3.23,.27,4.84,0,.14-.02,.24-.18,.24-.32-.07-3.28-.14-6.55-.21-9.83Z"/>
    <path class="cls-6" d="M28.75,45.43c-1.31-2.35-2.12-4.92-3.24-7.36-1.23-2.67-2.87-5.12-4.44-7.6-2.94-4.63-5.66-9.53-8.98-13.91-.25-.33-.83,0-.57,.33,3.32,4.37,6.04,9.27,8.98,13.91,1.53,2.41,3.14,4.81,4.35,7.4s1.99,5.14,3.33,7.55c.21,.37,.78,.04,.57-.33h0Z"/>
    <path class="cls-12" d="M25.22,49.1c-1.42,2.33-4.08,3.53-6.23,5.2s-3.95,4.61-2.68,7.02c.61,1.16,1.79,1.89,2.96,2.49,2.96,1.5,6.18,2.46,9.48,2.81,1.7,.18,3.42,.21,5.14,.22,19.03,.1,38.08-1.48,57.07-.24,2.45,.16,4.9,.37,7.36,.44,.86,.03,1.74,.04,2.54-.27,1.87-.71,2.76-2.91,2.81-4.92,.05-2-.51-3.98-.54-5.98-.06-3.72,1.7-7.5,.57-11.04-1.3-4.07-5.83-6.06-9.95-7.19-15.93-4.36-32.49-3.48-48.87-1.37"/>
    <path class="cls-2" d="M17.56,60.51c13.73-.79,27.47-.76,41.22-1.09,9.48-.23,18.99-.66,28.47-.36,2.33,.07,4.63,.25,6.92,.71,2.41,.48,4.48,.87,6.96,.58,.42-.05,.42-.71,0-.66-2.31,.27-4.26-.03-6.5-.5-2-.42-4.03-.65-6.07-.74-4.55-.21-9.13-.13-13.68-.05-10.3,.17-20.6,.42-30.91,.58-8.81,.13-17.62,.37-26.41,.88-.42,.02-.42,.68,0,.66h0Z"/>
    <path class="cls-9" d="M167.99,23.58c-3.68,3.8-6.69,8.42-7.78,13.6-.08,.39-.15,.8-.03,1.18,.09,.28,.29,.52,.48,.75,1.43,1.68,3,3.31,5,4.24,3.18,1.48,7.18,1.08,9.88,3.31,1.12,.92,2.26,2.34,3.66,1.96,.61-.17,1.07-.67,1.48-1.17,2.04-2.51,3.53-5.41,5-8.29,.88-1.72,1.76-3.44,2.64-5.16,.63-1.23,1.25-2.45,1.88-3.68,.9-1.76,1.8-3.52,2.7-5.27,1.32-2.59,2.68-5.3,2.68-8.2,0-.52-.09-1.12-.52-1.42-.5-.33-1.16-.09-1.71,.13-3.24,1.27-6.9,1.47-10.26,.56-.22-.06-.47-.14-.6-.33-.17-.24-.11-.57-.09-.86,.03-.49-.11-1.02-.5-1.32-1.1-.84-10.23,6.17-13.91,9.97Z"/>
    <path class="cls-2" d="M194.28,16.54c-5.93,9.77-11.85,19.55-17.78,29.32-.22,.36,.35,.7,.57,.33,5.93-9.77,11.85-19.55,17.78-29.32,.22-.36-.35-.7-.57-.33h0Z"/>
    <path class="cls-13" d="M10.78,15.71c1.01-1.69,1.82-.59,2.51-.28s1.29,.79,1.98,1.11c1.89,.86,4.09,.41,6.1-.08,1.21-.29,2.58-.73,3.06-1.87,.12-.29,.19-.62,.42-.83,.23-.21,.58-.24,.89-.21,.92,.09,1.75,.59,2.51,1.12,5.21,3.65,9.88,8.4,13.11,13.88,1.27,2.15,2.52,4.36,3.17,6.78,.12,.43,.21,.88,.14,1.32-.05,.3-.17,.59-.3,.87-.58,1.23-1.37,2.39-2.45,3.21-1.25,.95-3.92,2.15-5.4,2.67-2.62,.92-4.36,2.5-6.67,4.04l-1.13,.69c-.23,.21-.55,.29-.85,.36-.47,.12-.95,.23-1.42,.35-.48,.12-1.02,.23-1.44-.03-.28-.17-.46-.47-.62-.76-2.75-4.89-5.5-9.79-8.26-14.68-.86-1.53-1.72-3.07-2.48-4.65-1.11-2.32-2-4.74-2.65-7.22-.49-1.89-1.24-3.97-.22-5.76Z"/>
    <path class="cls-2" d="M44.21,35.4c.42,1.76-.91,3.7-2.21,4.82-.98,.84-2.21,1.4-3.37,1.93-1.01,.46-2.06,.81-3.08,1.25-1.3,.56-2.49,1.34-3.64,2.17-.85,.61-1.7,1.23-2.59,1.79-.26,.16-.51,.32-.77,.47-.67,.38-2.09,.87-2.84,.78-1.26-.15-2.19-2.8-2.73-3.77-.89-1.58-1.78-3.17-2.67-4.75-3.16-5.63-6.76-11.17-8.62-17.4-.44-1.46-.99-3.03-1.07-4.56-.04-.79,.13-2.98,1.33-3.01,.39,0,.85,.41,1.18,.59,1.2,.68,2.31,1.4,3.68,1.66,2.3,.43,5.1-.09,6.97-1.55,.51-.4,.82-.87,1.05-1.47,.13-.33,.09-.52,.42-.63,.47-.16,1.74,.58,2.07,.72,.38,.17,.72-.4,.33-.57-1.31-.58-2.77-1.49-3.41,.16-1,2.57-5.08,3.18-7.48,2.65-.46-.1-.89-.24-1.32-.44-1.03-.48-2.08-1.51-3.19-1.75-.79-.17-1.38,.41-1.75,1.04-.78,1.34-.58,2.92-.25,4.36,1.72,7.32,5.6,13.6,9.25,20.09,.97,1.73,1.94,3.46,2.91,5.18,.49,.86,.97,1.73,1.46,2.59,.26,.45,.51,1.03,.98,1.31,.94,.54,2.82-.07,3.71-.47,.76-.35,1.5-.9,2.18-1.38,1.55-1.08,3.05-2.27,4.77-3.08,1.41-.66,2.9-1.12,4.3-1.82,2.58-1.28,5.82-3.84,5.04-7.1-.1-.41-.73-.24-.64,.18h0Z"/>
    <path class="cls-2" d="M28.91,46.13c-1.31-2.35-2.12-4.92-3.24-7.36-1.23-2.67-2.87-5.12-4.44-7.6-2.94-4.63-5.66-9.53-8.98-13.91-.25-.33-.83,0-.57,.33,3.32,4.37,6.04,9.27,8.98,13.91,1.53,2.41,3.14,4.81,4.35,7.4s1.99,5.14,3.33,7.55c.21,.37,.78,.04,.57-.33h0Z"/>
    <path class="cls-2" d="M159.89,37.09c-.39,2.18,1.91,3.95,3.46,5.19,1.96,1.56,4.19,2.12,6.6,2.61,1.1,.22,2.22,.44,3.27,.84,1.44,.54,2.37,1.52,3.55,2.44,1.79,1.38,3.17,.77,4.47-.89,1.81-2.32,3.18-4.94,4.52-7.55,1.44-2.8,2.87-5.61,4.3-8.41s2.89-5.46,4.18-8.25c.9-1.94,2.15-4.74,1.58-6.93-.2-.76-.73-1.22-1.53-1.17s-1.55,.5-2.29,.71c-.69,.21-1.4,.37-2.12,.49-1.87,.3-3.81,.26-5.67-.11-.3-.06-.81-.08-1.06-.25-.52-.34-.4-.74-.46-1.24s-.25-.83-.58-1.18c-.29-.31-.76,.16-.47,.47,.7,.75,0,1.81,.85,2.4,.69,.47,1.89,.54,2.7,.64,2.19,.28,4.43,.13,6.56-.45,1.03-.28,3.41-1.63,3.47,.43,.04,1.4-.35,2.83-.83,4.13-.89,2.42-2.2,4.69-3.38,6.98-2.38,4.66-4.68,9.37-7.18,13.96-.53,.97-1.07,1.92-1.67,2.85-.69,1.07-1.75,3.17-3.07,3.51s-2.43-1.14-3.34-1.87c-.67-.54-1.41-.95-2.21-1.27-2.18-.85-4.56-.96-6.77-1.71-1.36-.46-2.55-1.22-3.62-2.17s-2.94-2.46-2.66-4.01c.07-.41-.56-.59-.64-.18h0Z"/>
    <path class="cls-2" d="M107.29,40.94c-1.92-3.86-1.56-8.65-1.64-12.85-.09-4.43-.03-8.86,.03-13.29,.02-1.85,0-3.72-.37-5.54-.4-1.96-1.4-3.65-2.02-5.53-.06-.18-.18-.44-.19-.63,0-.21,.11-.87,.37-.96,.12-.04,.45,.07,.57,.1,.58,.09,1.15,.19,1.73,.28,1.45,.23,2.91,.45,4.36,.66,7.05,1,14.14,1.21,21.25,1.56,8.61,.42,17.22,.88,25.84,.87,5.05,0,10.11-.14,15.16-.38,2.18-.11,4.54-.04,6.62-.81s3.63-2.38,5.83-2.42l-.32-.42c-.85,4.73-1.11,9.53-.77,14.33,.03,.42,.69,.42,.66,0-.34-4.74-.1-9.48,.74-14.15,.04-.2-.09-.42-.32-.42-1.69,.03-3.03,.89-4.46,1.69-2.13,1.19-4.36,1.35-6.75,1.48-4.72,.25-9.44,.39-14.16,.43-9.15,.08-18.26-.37-27.4-.82-7.57-.38-15.12-.6-22.63-1.69-1.43-.21-2.86-.43-4.29-.66-.7-.11-1.97-.6-2.56,0-.92,.93,.44,3.19,.84,4.12,.93,2.14,1.47,4.18,1.57,6.52,.21,5.06-.11,10.15-.02,15.22,.08,4.47-.31,9.57,1.74,13.68,.19,.38,.76,.05,.57-.33h0Z"/>
    <path class="cls-2" d="M103.35,59.33c-.18-1.35-.39-2.7-.33-4.07,.06-1.25,.28-2.49,.5-3.73,.38-2.21,.71-4.45,.05-6.64-.12-.41-.76-.23-.64,.18,.73,2.42,.18,4.89-.23,7.31-.19,1.12-.35,2.25-.36,3.39,0,1.26,.2,2.5,.37,3.74,.06,.42,.69,.24,.64-.18h0Z"/>
  </g>
</svg>